<svg xmlns:dc="http://purl.org/dc/elements/1.1/" xmlns:cc="http://creativecommons.org/ns#" xmlns:rdf="http://www.w3.org/1999/02/22-rdf-syntax-ns#" xmlns:svg="http://www.w3.org/2000/svg" xmlns="http://www.w3.org/2000/svg" viewBox="0 0 180 180"><metadata><rdf:RDF><cc:Work><dc:format>image/svg+xml</dc:format><dc:type rdf:resource="http://purl.org/dc/dcmitype/StillImage"/><dc:title>Bottts</dc:title><dc:creator><cc:Agent><dc:title>Pablo Stanley</dc:title></cc:Agent></dc:creator><dc:source>https://bottts.com/</dc:source><cc:license rdf:resource="https://bottts.com/"/><dc:contributor><cc:Agent><dc:title>Florian Körner</dc:title></cc:Agent></dc:contributor></cc:Work></rdf:RDF></metadata><mask id="avatarsRadiusMask"><rect width="180" height="180" rx="0" ry="0" x="0" y="0" fill="#fff"/></mask><g mask="url(#avatarsRadiusMask)"><g transform="translate(0, 66)"><path fill-rule="evenodd" clip-rule="evenodd" d="M160 9H162V28H163.6C165.84 28 166.96 28 167.816 28.436C168.569 28.8195 169.181 29.4314 169.564 30.184C170 31.0397 170 32.1598 170 34.4V53.6C170 55.8402 170 56.9603 169.564 57.816C169.181 58.5686 168.569 59.1805 167.816 59.564C166.96 60 165.84 60 163.6 60H140.4C138.16 60 137.04 60 136.184 59.564C135.431 59.1805 134.819 58.5686 134.436 57.816C134 56.9603 134 55.8402 134 53.6V34.4C134 32.1598 134 31.0397 134.436 30.184C134.819 29.4314 135.431 28.8195 136.184 28.436C137.04 28 138.16 28 140.4 28H160V9ZM10 34.4C10 32.1598 10 31.0397 10.436 30.184C10.8195 29.4314 11.4314 28.8195 12.184 28.436C13.0397 28 14.1598 28 16.4 28H39.6C41.8402 28 42.9603 28 43.816 28.436C44.5686 28.8195 45.1805 29.4314 45.564 30.184C46 31.0397 46 32.1598 46 34.4V53.6C46 55.8402 46 56.9603 45.564 57.816C45.1805 58.5686 44.5686 59.1805 43.816 59.564C42.9603 60 41.8402 60 39.6 60H16.4C14.1598 60 13.0397 60 12.184 59.564C11.4314 59.1805 10.8195 58.5686 10.436 57.816C10 56.9603 10 55.8402 10 53.6V34.4Z" fill="#0076DE"/><mask id="sidesAntenna02Mask0" mask-type="alpha" maskUnits="userSpaceOnUse" x="10" y="9" width="160" height="51"><path fill-rule="evenodd" clip-rule="evenodd" d="M160 9H162V28H163.6C165.84 28 166.96 28 167.816 28.436C168.569 28.8195 169.181 29.4314 169.564 30.184C170 31.0397 170 32.1598 170 34.4V53.6C170 55.8402 170 56.9603 169.564 57.816C169.181 58.5686 168.569 59.1805 167.816 59.564C166.96 60 165.84 60 163.6 60H140.4C138.16 60 137.04 60 136.184 59.564C135.431 59.1805 134.819 58.5686 134.436 57.816C134 56.9603 134 55.8402 134 53.6V34.4C134 32.1598 134 31.0397 134.436 30.184C134.819 29.4314 135.431 28.8195 136.184 28.436C137.04 28 138.16 28 140.4 28H160V9ZM10 34.4C10 32.1598 10 31.0397 10.436 30.184C10.8195 29.4314 11.4314 28.8195 12.184 28.436C13.0397 28 14.1598 28 16.4 28H39.6C41.8402 28 42.9603 28 43.816 28.436C44.5686 28.8195 45.1805 29.4314 45.564 30.184C46 31.0397 46 32.1598 46 34.4V53.6C46 55.8402 46 56.9603 45.564 57.816C45.1805 58.5686 44.5686 59.1805 43.816 59.564C42.9603 60 41.8402 60 39.6 60H16.4C14.1598 60 13.0397 60 12.184 59.564C11.4314 59.1805 10.8195 58.5686 10.436 57.816C10 56.9603 10 55.8402 10 53.6V34.4Z" fill="white"/></mask><g mask="url(#sidesAntenna02Mask0)"><rect width="180" height="76" fill="#FFEE58"/><rect y="38" width="180" height="38" fill="black" fill-opacity="0.1"/></g><rect x="160" y="8" width="2" height="20" fill="white" fill-opacity="0.4"/><path fill-rule="evenodd" clip-rule="evenodd" d="M161 9C163.209 9 165 7.20914 165 5C165 2.79086 163.209 1 161 1C158.791 1 157 2.79086 157 5C157 7.20914 158.791 9 161 9Z" fill="#E1E6E8"/><path fill-rule="evenodd" clip-rule="evenodd" d="M162 6C163.105 6 164 5.10457 164 4C164 2.89543 163.105 2 162 2C160.895 2 160 2.89543 160 4C160 5.10457 160.895 6 162 6Z" fill="white"/></g><g transform="translate(41, 0)"><path fill-rule="evenodd" clip-rule="evenodd" d="M48 0C39.1634 0 32 7.16344 32 16V32C32 36.4183 35.5817 40 40 40H23C22.4477 40 22 40.4477 22 41V51C22 51.5523 22.4477 52 23 52H77C77.5523 52 78 51.5523 78 51V41C78 40.4477 77.5523 40 77 40H60C64.4183 40 68 36.4183 68 32V16C68 7.16344 60.8366 0 52 0H48Z" fill="#59C4FF"/><mask id="topBulb011Mask0" mask-type="alpha" maskUnits="userSpaceOnUse" x="22" y="0" width="56" height="52"><path fill-rule="evenodd" clip-rule="evenodd" d="M48 0C39.1634 0 32 7.16344 32 16V32C32 36.4183 35.5817 40 40 40H23C22.4477 40 22 40.4477 22 41V51C22 51.5523 22.4477 52 23 52H77C77.5523 52 78 51.5523 78 51V41C78 40.4477 77.5523 40 77 40H60C64.4183 40 68 36.4183 68 32V16C68 7.16344 60.8366 0 52 0H48Z" fill="white"/></mask><g mask="url(#topBulb011Mask0)"><rect width="100" height="52" fill="#FFEE58"/><rect x="20" y="-3" width="60" height="43" fill="white" fill-opacity="0.4"/><path d="M49 3.5C53.9315 3.5 58.366 5.62814 61.4352 9.01616" stroke="white" stroke-width="2" stroke-linecap="round"/><path fill-rule="evenodd" clip-rule="evenodd" d="M49.8284 26L40.8284 17L38 19.8284L48 29.8284V40H52V29.9706L62.1421 19.8284L59.3137 17L50.3137 26H49.8284Z" fill="white" fill-opacity="0.8"/></g></g><g transform="translate(25, 44)"><path fill-rule="evenodd" clip-rule="evenodd" d="M0 102V68.8517C0 64.3169 0.77112 59.8152 2.28039 55.5389L19.7614 12.0092C22.3014 4.81263 29.1036 0 36.7353 0L93.2647 0C100.896 0 107.699 4.81263 110.239 12.0092L127.72 55.5389C129.229 59.8152 130 64.3169 130 68.8517V102C130 111.941 121.941 120 112 120H18C8.05887 120 0 111.941 0 102Z" fill="#0076DE"/><mask id="faceSquareMask0" mask-type="alpha" maskUnits="userSpaceOnUse" x="0" y="0" width="130" height="120"><path fill-rule="evenodd" clip-rule="evenodd" d="M0 102V68.8517C0 64.3169 0.77112 59.8152 2.28039 55.5389L19.7614 12.0092C22.3014 4.81263 29.1036 0 36.7353 0L93.2647 0C100.896 0 107.699 4.81263 110.239 12.0092L127.72 55.5389C129.229 59.8152 130 64.3169 130 68.8517V102C130 111.941 121.941 120 112 120H18C8.05887 120 0 111.941 0 102Z" fill="white"/></mask><g mask="url(#faceSquareMask0)"><rect x="-2" y="-2" width="134" height="124" fill="#FDD835"/> undefined </g></g><g transform="translate(52, 124)"><path fill-rule="evenodd" clip-rule="evenodd" d="M18 10.2222C18 21.7845 24.4741 28 38 28C51.5182 28 58 21.6615 58 10.2222C58 9.49622 57.1739 8 55 8C39.2707 8 29.1917 8 21 8C18.949 8 18 9.38479 18 10.2222Z" fill="black" fill-opacity="0.8"/><mask id="mouthSmilie02Mask0" mask-type="alpha" maskUnits="userSpaceOnUse" x="18" y="8" width="40" height="20"><path fill-rule="evenodd" clip-rule="evenodd" d="M18 10.2222C18 21.7845 24.4741 28 38 28C51.5182 28 58 21.6615 58 10.2222C58 9.49622 57.1739 8 55 8C39.2707 8 29.1917 8 21 8C18.949 8 18 9.38479 18 10.2222Z" fill="white"/></mask><g mask="url(#mouthSmilie02Mask0)"><rect x="30" y="2" width="16" height="14" rx="2" fill="white"/></g></g><g transform="translate(38, 76)"><path fill-rule="evenodd" clip-rule="evenodd" d="M28 42C37.9411 42 46 33.9411 46 24C46 14.0589 37.9411 6 28 6C18.0589 6 10 14.0589 10 24C10 33.9411 18.0589 42 28 42Z" fill="black" fill-opacity="0.2"/><path fill-rule="evenodd" clip-rule="evenodd" d="M74 42C83.9411 42 92 33.9411 92 24C92 14.0589 83.9411 6 74 6C64.0589 6 56 14.0589 56 24C56 33.9411 64.0589 42 74 42Z" fill="black" fill-opacity="0.2"/><path fill-rule="evenodd" clip-rule="evenodd" d="M28 39C36.2843 39 43 32.2843 43 24C43 15.7157 36.2843 9 28 9C19.7157 9 13 15.7157 13 24C13 32.2843 19.7157 39 28 39Z" fill="#F1EEDA"/><path fill-rule="evenodd" clip-rule="evenodd" d="M74 39C82.2843 39 89 32.2843 89 24C89 15.7157 82.2843 9 74 9C65.7157 9 59 15.7157 59 24C59 32.2843 65.7157 39 74 39Z" fill="#F1EEDA"/><rect x="26" y="15" width="10" height="10" rx="2" fill="black" fill-opacity="0.8"/><rect x="74" y="15" width="10" height="10" rx="2" fill="black" fill-opacity="0.8"/></g></g></svg>