<?xml version="1.0" standalone="no"?><svg xmlns="http://www.w3.org/2000/svg" viewBox="0 0 1440 320"><path fill="#264653" fill-opacity="1" d="M0,96L34.3,117.3C68.6,139,137,181,206,197.3C274.3,213,343,203,411,170.7C480,139,549,85,617,74.7C685.7,64,754,96,823,128C891.4,160,960,192,1029,181.3C1097.1,171,1166,117,1234,117.3C1302.9,117,1371,171,1406,197.3L1440,224L1440,0L1405.7,0C1371.4,0,1303,0,1234,0C1165.7,0,1097,0,1029,0C960,0,891,0,823,0C754.3,0,686,0,617,0C548.6,0,480,0,411,0C342.9,0,274,0,206,0C137.1,0,69,0,34,0L0,0Z"></path></svg>
