<?xml version="1.0" standalone="no"?>
<svg xmlns:xlink="http://www.w3.org/1999/xlink" id="wave" style="transform:rotate(0deg); transition: 0.3s" viewBox="0 0 1440 490" version="1.1" xmlns="http://www.w3.org/2000/svg"><defs><linearGradient id="sw-gradient-0" x1="0" x2="0" y1="1" y2="0"><stop stop-color="rgba(255, 254, 246, 1)" offset="0%"/><stop stop-color="rgba(255, 254, 246, 1)" offset="100%"/></linearGradient></defs><path style="transform:translate(0, 0px); opacity:1" fill="url(#sw-gradient-0)" d="M0,98L48,98C96,98,192,98,288,122.5C384,147,480,196,576,236.8C672,278,768,310,864,269.5C960,229,1056,114,1152,73.5C1248,33,1344,65,1440,106.2C1536,147,1632,196,1728,253.2C1824,310,1920,376,2016,351.2C2112,327,2208,212,2304,171.5C2400,131,2496,163,2592,147C2688,131,2784,65,2880,49C2976,33,3072,65,3168,81.7C3264,98,3360,98,3456,130.7C3552,163,3648,229,3744,285.8C3840,343,3936,392,4032,375.7C4128,359,4224,278,4320,261.3C4416,245,4512,294,4608,277.7C4704,261,4800,180,4896,187.8C4992,196,5088,294,5184,285.8C5280,278,5376,163,5472,114.3C5568,65,5664,82,5760,114.3C5856,147,5952,196,6048,196C6144,196,6240,147,6336,106.2C6432,65,6528,33,6624,57.2C6720,82,6816,163,6864,204.2L6912,245L6912,490L6864,490C6816,490,6720,490,6624,490C6528,490,6432,490,6336,490C6240,490,6144,490,6048,490C5952,490,5856,490,5760,490C5664,490,5568,490,5472,490C5376,490,5280,490,5184,490C5088,490,4992,490,4896,490C4800,490,4704,490,4608,490C4512,490,4416,490,4320,490C4224,490,4128,490,4032,490C3936,490,3840,490,3744,490C3648,490,3552,490,3456,490C3360,490,3264,490,3168,490C3072,490,2976,490,2880,490C2784,490,2688,490,2592,490C2496,490,2400,490,2304,490C2208,490,2112,490,2016,490C1920,490,1824,490,1728,490C1632,490,1536,490,1440,490C1344,490,1248,490,1152,490C1056,490,960,490,864,490C768,490,672,490,576,490C480,490,384,490,288,490C192,490,96,490,48,490L0,490Z"/></svg>